<svg xmlns:xlink="http://www.w3.org/1999/xlink" xmlns="http://www.w3.org/2000/svg" aria-hidden="true" viewBox="0 0 24 24" class="MainHeaderV2__buttonIcon" width="24"  height="24" ><path fill-rule="evenodd" d="M11.37 22.105h1.26l1.24-2.505 6.09.045A2.145 2.145 0 0 0 22.1 17.5V4.04a2.145 2.145 0 0 0-2.14-2.145H4.04A2.145 2.145 0 0 0 1.9 4.04V17.5a2.15 2.15 0 0 0 2.145 2.145l6.085-.04zM12 20.67l-1.13-2.275-6.83.05a.945.945 0 0 1-.94-.945V4.04c0-.52.42-.942.94-.945h15.92c.52.003.94.425.94.945V17.5a.945.945 0 0 1-.94.94l-6.83-.045z" clip-rule="evenodd" fill="#FFFFFF"></path></svg>