<svg xmlns:xlink="http://www.w3.org/1999/xlink" xmlns="http://www.w3.org/2000/svg" aria-hidden="true" viewBox="0 0 24 24" class="MainHeaderV2__buttonIcon" width="24"  height="24" ><path fill-rule="evenodd" d="M12 12.6a3.6 3.6 0 1 1 0-7.2 3.6 3.6 0 0 1 0 7.2M9.6 9a2.4 2.4 0 1 1 4.8 0 2.4 2.4 0 0 1-4.8 0" clip-rule="evenodd" fill="#FFFFFF"></path><path fill-rule="evenodd" d="m11.03 22.875.18.225h1.58l.18-.225C17.7 16.96 20.1 12.29 20.1 9A8.1 8.1 0 0 0 3.9 9c0 3.29 2.4 7.96 7.13 13.875M18.9 9c0 2.97-2.25 7.31-6.69 12.9h-.42C7.35 16.31 5.1 11.97 5.1 9a6.9 6.9 0 0 1 13.8 0" clip-rule="evenodd" fill="#FFFFFF"></path></svg>