<svg xmlns:xlink="http://www.w3.org/1999/xlink" xmlns="http://www.w3.org/2000/svg" aria-hidden="true" viewBox="0 0 24 24" class="MainHeaderV2__buttonIcon" width="24"  height="24" ><path fill-rule="evenodd" d="M17.35 6.745A5.06 5.06 0 0 1 14.95 11c3.945 1.03 6.15 4.275 6.15 9.245v1.5h-1.2v-1.5c0-7.31-4.95-8.4-7.9-8.4s-7.9 1.09-7.9 8.4v1.5H2.9v-1.5C2.9 15.27 5.105 12 9.05 11a5.06 5.06 0 0 1-2.4-4.25A5.235 5.235 0 0 1 12 1.65a5.235 5.235 0 0 1 5.35 5.095M12 2.85a4.035 4.035 0 0 0-4.15 3.9 4.035 4.035 0 0 0 4.15 3.9 4.035 4.035 0 0 0 4.15-3.9A4.035 4.035 0 0 0 12 2.85" clip-rule="evenodd" fill="#FFFFFF"></path></svg>